PathFileType	4	(X/Y/Z)	C:\Users\Basilio\Documents\Thesis Gigler\squatting_fais\c3dfiles\038\SLS_back_pre5\markers_experimental.trc
DataRate	CameraRate	NumFrames	NumMarkers	Units	OrigDataRate	OrigDataStartFrame	OrigNumFrames
200.000000	200.000000	4	63	mm	200.000000	837	1674
Frame#	Time	FHD			LBHD			RBHD			C7			T10			CLAV			LSHO			LUUPA			LMUPA			LDUPA			LLEP			LMEP			LRAD			LUL			LRFIN			RSHO			RUPA1			RMUPA			RDUPA			RLEP			RMEP			RRAD			RUL			RUFIN			LASI			RASI			USACR			LSACR			RSACR			LTHI1			LTHI2			LTHI3			LTHI4			LLFC			LMFC			LTIB1			LTIB2			LTIB3			LTIB4			LLMAL			LMMAL			LHEE			LMT1			LMT2			LMT5			RTHI			RTHI2			RTHI3			RTHI4			RLFC			RMFC			RTIB1			RTIB2			RTIB3			RTIB4			RLMAL			RMMAL			RHEE			RMT1			RMT2			RMT5			*61			*62			
		X1	Y1	Z1	X2	Y2	Z2	X3	Y3	Z3	X4	Y4	Z4	X5	Y5	Z5	X6	Y6	Z6	X7	Y7	Z7	X8	Y8	Z8	X9	Y9	Z9	X10	Y10	Z10	X11	Y11	Z11	X12	Y12	Z12	X13	Y13	Z13	X14	Y14	Z14	X15	Y15	Z15	X16	Y16	Z16	X17	Y17	Z17	X18	Y18	Z18	X19	Y19	Z19	X20	Y20	Z20	X21	Y21	Z21	X22	Y22	Z22	X23	Y23	Z23	X24	Y24	Z24	X25	Y25	Z25	X26	Y26	Z26	X27	Y27	Z27	X28	Y28	Z28	X29	Y29	Z29	X30	Y30	Z30	X31	Y31	Z31	X32	Y32	Z32	X33	Y33	Z33	X34	Y34	Z34	X35	Y35	Z35	X36	Y36	Z36	X37	Y37	Z37	X38	Y38	Z38	X39	Y39	Z39	X40	Y40	Z40	X41	Y41	Z41	X42	Y42	Z42	X43	Y43	Z43	X44	Y44	Z44	X45	Y45	Z45	X46	Y46	Z46	X47	Y47	Z47	X48	Y48	Z48	X49	Y49	Z49	X50	Y50	Z50	X51	Y51	Z51	X52	Y52	Z52	X53	Y53	Z53	X54	Y54	Z54	X55	Y55	Z55	X56	Y56	Z56	X57	Y57	Z57	X58	Y58	Z58	X59	Y59	Z59	X60	Y60	Z60	X61	Y61	Z61	X62	Y62	Z62	X63	Y63	Z63	

838	4.185	-172.0285949707032	1557.972412109375	-1053.5537109375	-322.8394775390626	1497.831787109375	-1115.077392578125	-314.2073059082032	1482.92333984375	-970.614929199219	-355.5173339843751	1327.684326171875	-1043.867553710938	-402.3686828613282	1058.169799804688	-1026.1455078125	-212.4226074218751	1298.4111328125	-1054.808837890625	-274.5650329589844	1347.207885742188	-1190.58154296875	-114.1649932861328	1295.206176757813	-1325.148193359375	-87.23338317871095	1329.4091796875	-1298.777587890625	-45.85530471801759	1305.1630859375	-1334.363159179688	16.42761039733887	1310.760009765625	-1336.396240234375	30.26050186157227	1236.94091796875	-1313.456298828125	292.8988342285157	1324.995361328125	-1209.7431640625	308.4435424804688	1337.033203125	-1279.382446289063	362.8014831542969	1362.94970703125	-1186.09912109375	-256.6511840820313	1339.784790039063	-916.3692626953127	-96.03637695312503	1330.244506835938	-806.2930297851565	-63.67633056640626	1342.1005859375	-840.6804809570315	-27.15816879272462	1330.734130859375	-793.6235961914065	46.11949539184571	1334.41455078125	-788.0650024414065	58.0740203857422	1257.990966796875	-807.8771972656252	319.2554321289063	1360.00341796875	-878.561950683594	330.8309326171876	1371.53125	-810.1705322265627	393.6793212890626	1404.177001953125	-884.2664184570315	-262.2126159667969	848.5413208007815	-1112.610229492188	-297.5028381347657	867.6881103515627	-869.548522949219	-442.9094543457032	912.3767700195315	-1015.308654785156	-453.9956359863282	881.5313720703127	-1044.439819335938	-461.5422973632814	884.221130371094	-987.6390380859377	-157.6736907958985	583.3084716796876	-1163.493774414063	-88.1964569091797	533.3549804687501	-1153.521850585938	-56.15905761718751	560.1101074218751	-1125.584350585938	-87.56079101562501	474.409149169922	-1136.191772460938	-68.74889373779298	425.9738159179689	-1119.265991210938	-69.97216033935548	433.5476074218751	-1003.454711914063	-131.3312225341797	269.4342651367188	-1018.467651367188	-189.7401733398438	247.9753723144532	-1084.127685546875	-163.5774078369141	229.0895233154297	-1048.569702148438	-223.270736694336	181.2963104248047	-1011.802856445313	-369.5538940429688	117.1007385253907	-1035.856323242188	-330.7620239257813	129.4472808837891	-958.754089355469	-432.5143127441407	101.2578735351563	-979.4378662109377	-231.7240753173829	41.83975219726563	-972.7637329101565	-223.0587768554688	46.11231231689454	-1022.739196777344	-269.8597106933594	38.68625640869141	-1069.42578125	-310.3722229003907	602.5470581054689	-788.896179199219	-265.3849182128907	554.4274902343751	-773.4936523437502	-232.3550415039063	560.2546997070314	-776.1036376953127	-279.7818603515626	468.8492736816407	-780.5501098632815	-259.4297485351563	375.9141845703126	-787.9360351562502	-251.0072937011719	363.8218688964844	-904.8648681640627	-388.1762695312501	276.6023559570313	-834.6439208984377	-489.730438232422	333.1833190917969	-821.9143676757815	-473.409393310547	288.2945556640626	-825.8092041015627	-513.3858642578126	264.4819641113282	-863.7595825195315	-643.9278564453126	298.7210693359376	-862.2424316406252	-618.5247802734376	267.1418762207032	-935.7081298828127	-655.3973999023439	356.3972167968751	-934.5979003906252	-707.9558105468751	145.730941772461	-937.4749145507815	-720.7252197265626	147.1922760009766	-891.8684692382815	-749.5833129882814	194.0308837890626	-859.0802001953127	nan	nan	nan	nan	nan	nan	
839	4.19	-171.5379791259766	1557.843017578125	-1053.387451171875	-322.5223693847657	1497.35205078125	-1114.98486328125	-313.9973449707032	1482.28466796875	-970.6628417968752	-355.1776428222657	1327.007934570313	-1043.930297851563	-402.2694702148439	1057.68505859375	-1026.167236328125	-212.2307891845704	1297.755859375	-1054.792846679688	-274.1980285644532	1346.822021484375	-1190.555297851563	-113.9107055664063	1294.79931640625	-1325.132690429688	-87.03645324707033	1328.945434570313	-1298.747436523438	-45.64952468872071	1304.649536132813	-1334.423583984375	16.59518051147461	1310.297973632813	-1336.464599609375	30.63302421569825	1236.466674804688	-1313.703491210938	293.0322875976563	1324.4833984375	-1210.055541992188	308.7731323242188	1336.595336914063	-1279.632568359375	362.9137573242188	1362.639892578125	-1186.320068359375	-256.3897399902344	1339.174560546875	-916.408630371094	-95.7040252685547	1329.624877929688	-806.3503417968752	-63.36531448364259	1341.54638671875	-840.793884277344	-26.89520645141602	1330.192626953125	-793.7017822265627	46.55762100219727	1333.828369140625	-788.1232910156252	58.45436096191408	1257.387573242188	-808.2132568359377	319.4143676757813	1359.3525390625	-878.6563720703127	331.3421936035157	1371.214233398438	-809.9517822265627	393.9890136718751	1403.693481445313	-884.4031982421877	-262.1245117187501	847.9213867187502	-1112.508422851563	-297.7487792968751	867.209167480469	-869.599548339844	-442.7882080078126	911.8559570312502	-1015.508972167969	-453.6069946289064	880.8897705078127	-1044.598510742188	-461.5708007812501	883.898376464844	-987.7647705078127	-157.2334747314453	582.9821777343751	-1162.9404296875	-87.58031463623048	533.3078002929689	-1152.94091796875	-55.96030044555665	560.1757812500001	-1124.871215820313	-87.03969573974611	474.1842346191407	-1135.589721679688	-68.25959777832033	425.7361755371095	-1118.428344726563	-69.8032913208008	433.4003906250001	-1002.632629394531	-131.3530578613282	269.5470581054688	-1018.145690917969	-189.3285369873047	247.8927612304688	-1083.70166015625	-163.415023803711	229.3312225341797	-1047.94775390625	-223.1593627929688	181.2318572998047	-1011.653503417969	-369.5049743652344	117.159164428711	-1035.862182617188	-330.7688598632813	129.4943389892578	-958.627380371094	-432.5994873046876	101.4637527465821	-978.930358886719	-231.7303619384766	41.83417129516602	-972.783142089844	-223.0576324462891	46.09191513061524	-1022.69970703125	-269.5455932617188	38.45890045166016	-1069.32568359375	-310.5578613281251	602.1400756835939	-788.8491821289065	-265.4426269531251	554.0581054687501	-773.4162597656252	-232.5390014648438	559.8747558593751	-776.0284423828127	-279.8395385742188	468.5106811523439	-780.3851318359377	-259.4216003417969	375.7081604003907	-787.7285766601565	-250.9287261962891	363.5144958496094	-904.7169189453127	-388.241180419922	276.6045227050782	-834.5872802734377	-489.7129821777345	333.4093627929688	-821.8643798828127	-473.4388427734376	288.5285949707032	-825.7769775390627	-513.4563598632814	264.8239135742188	-863.681335449219	-643.9603881835939	299.1882324218751	-862.2542114257815	-618.5056152343751	267.4606323242188	-935.7486572265627	-655.4528198242189	357.0693969726563	-934.6848144531252	-708.0688476562501	146.6488952636719	-938.1507568359377	-721.0248413085939	147.8933410644532	-891.632263183594	-749.7623901367189	194.7640838623047	-859.1595458984377	nan	nan	nan	nan	nan	nan	
840	4.195	-171.3653106689453	1557.014038085938	-1053.34423828125	-322.2656250000001	1496.887817382813	-1114.908935546875	-313.8532409667969	1481.751586914063	-970.5706787109377	-354.9142761230469	1326.587036132813	-1043.98486328125	-402.1566772460939	1057.092895507813	-1026.31494140625	-211.9353485107422	1297.1865234375	-1054.840942382813	-274.1077575683594	1346.263305664063	-1190.698974609375	-113.8126602172852	1294.30859375	-1325.115234375	-86.91233062744142	1328.331176757813	-1298.706420898438	-45.49213027954102	1304.231079101563	-1334.504272460938	16.85775947570801	1309.805053710938	-1336.562622070313	30.93279838562012	1236.1484375	-1313.784301757813	293.4049987792969	1323.947143554688	-1210.291870117188	308.9776611328126	1336.103881835938	-1279.753295898438	363.3787841796876	1361.916870117188	-1186.374389648438	-256.2023925781251	1338.481323242188	-916.2439575195315	-95.33547210693361	1328.9072265625	-806.4631347656252	-63.03001403808595	1340.998046875	-840.9752197265627	-26.48259925842286	1329.69189453125	-793.775817871094	46.86825561523438	1333.291015625	-788.264343261719	58.74027633666994	1256.698364257813	-808.158386230469	319.6586608886719	1358.81689453125	-878.7024536132815	331.5241699218751	1370.614135742188	-809.9353637695315	394.2661132812501	1402.868041992188	-884.381774902344	-262.0830688476563	847.1983642578127	-1112.387451171875	-297.9352111816407	866.8968505859377	-869.5474243164065	-442.7105712890626	911.5567626953127	-1015.735595703125	-454.570281982422	880.6281738281252	-1045.0224609375	-461.7610473632814	883.400573730469	-987.9639282226565	-156.7149353027344	582.6486816406251	-1162.419555664063	-87.13543701171876	533.2354125976564	-1152.254638671875	-55.58190155029298	560.0127563476564	-1124.151245117188	-86.5969696044922	473.9588012695314	-1135.0419921875	-67.89806365966798	425.6096496582032	-1117.810546875	-69.71766662597658	433.252166748047	-1002.102844238281	-131.1318664550782	269.3675231933594	-1017.692993164063	-189.087387084961	247.8637084960938	-1083.318237304688	-163.2380676269532	229.2038269042969	-1047.7158203125	-223.1172027587891	181.1600646972657	-1011.451110839844	-369.4577026367188	117.1449050903321	-1035.885864257813	-331.2334899902344	128.9803466796875	-959.0415649414065	-432.5057983398439	101.2696228027344	-979.4463500976565	-231.7347412109376	41.8369255065918	-972.7239379882815	-223.0741119384766	46.09761428833009	-1022.681396484375	-269.8470764160157	38.71258926391602	-1069.38623046875	-310.6492309570313	601.8849487304689	-788.6561279296877	-265.5189819335938	553.8173217773439	-773.2836914062502	-232.6961975097657	559.5055541992189	-775.9775390625002	-279.9405212402344	468.2202453613282	-780.239196777344	-259.4095153808594	375.5123291015626	-787.558532714844	-250.9046020507813	363.2359619140626	-904.625427246094	-388.3204040527345	276.5382080078126	-834.6226196289065	-489.6765747070314	333.6449890136719	-821.7176513671877	-473.459930419922	288.6602172851563	-825.7531738281252	-513.5325927734376	265.0057678222657	-863.6531982421877	-643.9917602539064	299.6942138671876	-862.253112792969	-618.4844360351564	267.6671447753907	-935.6947021484377	-655.3362426757814	357.3128051757813	-934.6072387695315	-707.9742431640626	147.6023101806641	-937.6169433593752	-721.3708496093751	148.8482818603516	-891.291198730469	-749.9411010742189	194.8436126708985	-859.1546020507815	nan	nan	nan	nan	nan	nan	
841	4.2	-171.0446472167969	1556.44189453125	-1053.169311523438	-321.9587097167969	1496.291015625	-1114.893188476563	-313.6389770507813	1481.135131835938	-970.4033203125002	-354.7421569824219	1326.137451171875	-1043.958984375	-402.0479431152345	1056.63134765625	-1026.380737304688	-211.7864379882813	1296.676025390625	-1054.862670898438	-274.2458801269532	1345.563842773438	-1190.852661132813	-113.5927429199219	1293.930908203125	-1325.140258789063	-86.6777801513672	1327.870727539063	-1298.678588867188	-45.31866455078126	1303.783935546875	-1334.562744140625	17.55685615539551	1309.044555664063	-1336.581420898438	31.17636489868165	1235.764892578125	-1313.977172851563	293.8057861328126	1323.565795898438	-1210.365356445313	309.1647033691407	1335.706787109375	-1279.87841796875	363.3583068847657	1361.585327148438	-1186.523315429688	-255.9223327636719	1338.115356445313	-916.426696777344	-95.17476654052736	1328.260986328125	-806.4885253906252	-62.73153686523439	1340.333129882813	-841.0850830078127	-26.07512664794923	1329.19482421875	-793.831237792969	47.15609741210938	1332.77099609375	-788.386169433594	58.86301803588869	1256.208740234375	-808.0849609375002	319.8487548828126	1358.214233398438	-878.782165527344	331.7340393066407	1369.902587890625	-810.1793212890627	394.5105590820314	1402.267700195313	-884.5438232421877	-261.7776184082032	847.054626464844	-1112.187133789063	-298.1411437988282	866.2767333984377	-869.4131469726565	-442.7364807128907	911.094421386719	-1015.839172363281	-454.6824035644532	880.2612915039065	-1045.175659179688	-461.7891845703126	882.9177856445315	-988.164733886719	-156.427474975586	582.3758544921876	-1162.050415039063	-86.70266723632814	533.0788574218751	-1151.577026367188	-55.2263526916504	559.8675537109376	-1123.639892578125	-86.11856079101564	473.7064208984376	-1134.484985351563	-67.84394836425783	425.1248779296876	-1117.268920898438	-69.58578491210939	433.1483154296876	-1001.43310546875	-130.9087677001953	269.0777587890626	-1017.298828125	-188.8892364501953	247.8079528808594	-1083.04638671875	-162.986328125	229.1239166259766	-1047.434204101563	-222.9659729003907	181.0863189697266	-1011.287353515625	-369.4308166503907	117.1798477172852	-1035.922729492188	-330.6695251464844	129.4114685058594	-958.658874511719	-432.5565490722657	101.2634201049805	-979.477722167969	-231.7255096435547	41.82145690917969	-972.7744140625002	-223.0128173828126	46.07955169677735	-1022.742248535156	-269.8739013671876	38.68273544311524	-1069.416381835938	-310.8500061035157	601.5400390625001	-788.6168212890627	-265.6123352050782	553.4611816406251	-773.190368652344	-232.8483276367188	559.1895751953126	-775.8289184570315	-280.0069274902344	467.9561157226564	-780.0749511718752	-259.6085510253907	374.9622802734376	-787.449890136719	-250.8849029541016	362.9587402343751	-904.4573364257815	-388.353485107422	276.5542602539063	-834.5852050781252	-489.6463012695314	333.9020080566407	-821.6241455078127	-473.5012207031251	288.8058776855469	-825.616149902344	-513.5678100585939	265.2447204589844	-863.6328735351565	-644.0572509765626	300.2592773437501	-862.3057250976565	-618.4685058593751	267.9792480468751	-935.6900634765627	-655.3096923828126	357.7512817382813	-934.717712402344	-708.2117919921876	148.0216217041016	-937.5882568359377	-721.6359252929689	149.45947265625	-891.0017089843752	-750.0051269531251	196.0273895263672	-859.194274902344	nan	nan	nan	nan	nan	nan	
